<?xml version="1.0" encoding="UTF-8"?> <svg xmlns="http://www.w3.org/2000/svg" width="41" height="37" viewBox="0 0 41 37" fill="none"><path d="M37.6012 18.8353C41.8763 14.5998 39.7762 8.80397 36.3261 5.16297C35.2011 3.97408 33.8511 2.85949 32.501 2.11642C30.776 1.15045 25.2259 -0.26137 21.6258 3.23102L19.6007 5.23728C19.6421 5.19635 19.6421 5.12959 19.6007 5.08867L18.0257 3.52824C9.55051 -4.64543 -4.77482 9.47273 3.47537 17.6464L4.5254 18.6867L5.22278 19.4076C5.79232 19.9964 5.78234 20.9338 5.20041 21.5103C4.30039 22.402 4.30039 23.8881 5.20041 24.7055L5.50042 25.0027C6.40044 25.8944 7.90047 25.8944 8.72549 25.0027L9.1012 24.6305C9.14235 24.5897 9.20866 24.5897 9.24981 24.6305C9.2915 24.6718 9.2915 24.7392 9.24981 24.7805L8.9505 25.077C8.05048 25.9687 8.05048 27.4548 8.9505 28.2722L9.25051 28.5694C10.1505 29.4611 11.6506 29.4611 12.4756 28.5694L13.0013 28.0486C13.0424 28.0078 13.1087 28.0078 13.1499 28.0486C13.1916 28.0899 13.1916 28.1572 13.1499 28.1986L12.9256 28.4208C12.0256 29.3125 12.0256 30.7986 12.9256 31.6159L13.2256 31.9132C14.1256 32.8048 15.6257 32.8048 16.4507 31.9132L16.9355 31.4328C16.9595 31.409 16.9961 31.4031 17.0264 31.4181C17.0751 31.4422 17.0855 31.5071 17.047 31.5453L16.7507 31.8389C15.8507 32.7305 15.8507 34.2167 16.7507 35.034L17.0507 35.3312C17.9507 36.2229 19.4507 36.2229 20.2758 35.3312L22.6008 33.0278C22.8118 32.8187 22.9716 32.5806 23.0823 32.327C23.2532 31.9354 24.0973 31.5381 24.4009 31.8389C26.4156 33.8349 30.2121 31.0501 27.8871 28.4605C27.8676 28.4388 27.8673 28.4046 27.8879 28.3841C27.909 28.3633 27.9429 28.3633 27.9639 28.3841L28.3759 28.7923C30.326 30.7986 34.3011 27.8263 31.901 25.2999C34.4511 27.752 37.3012 23.9624 35.3511 21.8818C35.1818 21.7141 35.1701 21.4443 35.3242 21.2625L36.6261 19.727L37.6012 18.8353Z" fill="white"></path><path d="M19.0219 4.36668C19.0078 4.35267 18.9942 4.33989 18.9791 4.32693C18.558 3.96562 12.0778 -1.45207 7.00045 2.85955C3.04214 6.22092 2.06818 8.31514 1.82854 9.14222C1.75252 9.40456 1.69359 9.67468 1.6201 9.93775C1.28349 11.1427 0.69484 14.9632 5.09026 18.9785C5.75123 19.5823 6.74663 19.5812 7.46522 19.0473L9.13657 17.8054C9.21243 17.7491 9.28362 17.6869 9.35825 17.629C9.71174 17.3544 10.8827 16.6527 12.0887 18.2373C12.1998 18.3834 12.2735 18.5548 12.3184 18.7327L12.4265 19.1609C12.6802 20.1662 13.931 20.5143 14.6675 19.7846C15.0253 19.4301 15.5518 19.3063 16.0301 19.4643L16.5512 19.6364C17.1489 19.8338 17.6188 20.3011 17.8196 20.8977L18.1463 21.8688C18.2154 22.0743 18.2507 22.2897 18.2507 22.5066V22.5894C18.2507 23.2611 18.5879 23.888 19.1485 24.2582L19.603 24.5584C20.1635 24.9286 20.5008 25.5555 20.5008 26.2273V27.2897C20.5008 27.8234 20.714 28.3349 21.0932 28.7105L24.4162 32.0028C24.7908 32.3738 25.2966 32.582 25.8238 32.582H26.02C26.7749 32.582 27.4654 32.157 27.8055 31.4831L28.3782 30.3483C28.6169 29.8754 29.0335 29.5164 29.5365 29.3503L30.5546 29.0141C30.8482 28.9171 31.1153 28.7534 31.335 28.5358L33.2511 26.6375L34.8553 25.0482C35.6301 24.2805 35.647 23.0335 34.8932 22.2451L24.0103 10.8643C23.2966 10.1179 22.1319 10.0376 21.3226 10.6791L19.5465 12.0867C19.1931 12.3669 18.7553 12.5193 18.3043 12.5193H15.2637C14.7957 12.5193 14.3677 12.2559 14.1568 11.8381C13.9146 11.3582 14.0092 10.777 14.3911 10.3987L19.0219 5.81078C19.4233 5.4131 19.4233 4.76436 19.0219 4.36668Z" fill="#A1F4C0"></path><path d="M23.2751 9.84423C23.4729 9.84423 23.668 9.88991 23.8453 9.97771L24.6066 10.3548C24.8178 10.4594 25.0088 10.6006 25.1709 10.7717L33.729 19.8075C34.5253 20.6482 35.867 20.6391 36.6518 19.7875L38.1621 18.1488C38.2875 18.0126 38.3935 17.8598 38.4769 17.6945L39.6554 15.3592C39.7844 15.1036 39.857 14.8233 39.8684 14.5372L39.9792 11.7379C39.9936 11.374 39.9084 11.0132 39.7328 10.6942L37.4462 6.54103C37.35 6.36635 37.2283 6.20704 37.085 6.06837L34.3113 3.38431C34.1555 3.23356 33.9762 3.10914 33.7805 3.01592L30.5205 1.46313C30.2929 1.35471 30.0468 1.2903 29.7952 1.27331L27.1278 1.09312C26.9605 1.08183 26.7925 1.0916 26.6277 1.12222L24.7689 1.4675C24.5746 1.5036 24.3867 1.56831 24.2113 1.65952L21.7449 2.94237C21.5665 3.03518 21.4031 3.15437 21.2602 3.29592L14.4598 10.0332C14.1499 10.3403 13.9756 10.7584 13.9756 11.1946C13.9756 11.6156 14.1379 12.0203 14.4289 12.3245L14.5712 12.4734C15.0414 12.9651 15.7293 13.1841 16.3973 13.0546L18.3599 12.6742C18.6341 12.621 18.894 12.511 19.1231 12.3513L20.8007 11.1817L22.5851 10.0453C22.7913 9.91399 23.0306 9.84423 23.2751 9.84423Z" fill="white"></path><path d="M29.8755 10.7047C31.2087 10.5375 32.6066 11.2427 32.1539 12.5079C31.8699 13.3017 31.3472 14.1157 30.4039 14.7035C29.7938 15.0836 29.0197 14.8989 28.4832 14.4206L27.1351 13.2185C26.3035 12.4771 26.2696 11.1879 27.0611 10.4038C27.4229 10.0453 27.7434 10.1352 28.1694 10.4142C28.5048 10.6338 29.037 10.8098 29.8755 10.7047Z" fill="#DEE0E2"></path><path d="M35.1261 21.2874L37.6012 18.8353C41.8763 14.5998 39.7762 8.80397 36.3262 5.16297C35.2011 3.97408 33.8511 2.85949 32.5011 2.11642C30.776 1.15045 25.2259 -0.26137 21.6258 3.23102L14.1256 10.5873C12.1006 12.5936 17.2007 14.5255 19.7508 11.9991L21.6258 10.1415C24.4009 7.61508 27.926 12.6679 32.2761 9.24981" stroke="#404145" stroke-width="1.6" stroke-miterlimit="10"></path><path d="M19.6757 5.16299L18.0257 3.52825C9.55051 -4.64542 -4.77482 9.47274 3.47537 17.6464L5.95043 20.0985" stroke="#404145" stroke-width="1.6" stroke-miterlimit="10"></path><path d="M25.6759 11.9248L35.2761 21.9561C37.2262 23.9624 34.3011 27.9006 31.826 25.2999L27.3259 20.6929" stroke="#404145" stroke-width="1.6" stroke-miterlimit="10"></path><path d="M23.3508 23.8138L28.3009 28.8666C30.326 30.8729 34.3011 27.9006 31.826 25.2999L26.9509 20.3214" stroke="#404145" stroke-width="1.6" stroke-miterlimit="10"></path><path d="M21.8508 29.3867L24.3259 31.8388C26.3509 33.8451 30.251 30.9471 27.701 28.3464" stroke="#404145" stroke-width="1.6" stroke-miterlimit="10"></path><path d="M11.8756 18.0922L12.1756 18.3894C13.0756 19.2811 13.0756 20.7672 12.1756 21.5846L8.72549 25.0027C7.82547 25.8944 6.32543 25.8944 5.50041 25.0027L5.20041 24.7055C4.30039 23.8138 4.30039 22.3277 5.20041 21.5103L8.65049 18.0922C9.55051 17.2005 10.9755 17.2005 11.8756 18.0922ZM17.6507 19.6526L17.9507 19.9499C18.8507 20.8415 18.8507 22.3277 17.9507 23.145L12.4756 28.5694C11.5756 29.461 10.0755 29.461 9.2505 28.5694L8.95049 28.2722C8.05047 27.3805 8.05047 25.8944 8.95049 25.077L14.4256 19.6526C15.3256 18.761 16.7507 18.761 17.6507 19.6526ZM19.9007 24.7055L20.2008 25.0027C21.1008 25.8944 21.1008 27.3805 20.2008 28.1978L16.4507 31.9131C15.5506 32.8048 14.0506 32.8048 13.2256 31.9131L12.9256 31.6159C12.0256 30.7243 12.0256 29.2381 12.9256 28.4208L16.6757 24.7055C17.5007 23.8138 19.0007 23.8138 19.9007 24.7055ZM22.3008 29.5354L22.6008 29.8326C23.5008 30.7243 23.5008 32.2104 22.6008 33.0277L20.2758 35.3312C19.3757 36.2229 17.8757 36.2229 17.0507 35.3312L16.7507 35.034C15.8507 34.1423 15.8507 32.6562 16.7507 31.8388L19.0757 29.5354C19.9758 28.6437 21.4008 28.6437 22.3008 29.5354Z" stroke="#404145" stroke-width="1.6" stroke-miterlimit="10"></path></svg> 