<?xml version="1.0" encoding="UTF-8"?> <svg xmlns="http://www.w3.org/2000/svg" width="94" height="37" viewBox="0 0 94 37" fill="none"><path fill-rule="evenodd" clip-rule="evenodd" d="M1.82731 4.30552H7.62939e-05V0.174896H7.55931V17.1938C7.55931 18.8136 7.85725 19.3753 9.14963 19.3753C9.51396 19.3753 9.84551 19.3421 9.84551 19.3421V23.8695C9.84551 23.8695 9.05025 23.9688 8.12261 23.9688C5.07455 23.9688 1.82731 23.2416 1.82731 17.5243V4.30552ZM26.3606 29.0622C25.9808 29.2261 25.6548 29.4614 25.3827 29.7678C25.1103 30.0743 24.8989 30.4504 24.7484 30.8957C24.5979 31.3411 24.5229 31.8456 24.5229 32.4087C24.5229 32.979 24.5979 33.4884 24.7484 33.9375C24.8989 34.3865 25.1103 34.7694 25.3827 35.0868C25.6548 35.4037 25.9808 35.6461 26.3606 35.8138C26.7402 35.981 27.1594 36.0649 27.6179 36.0649C28.0765 36.0649 28.4957 35.981 28.8753 35.8138C29.2551 35.6461 29.5829 35.4037 29.8588 35.0868C30.1347 34.7694 30.3476 34.3865 30.4982 33.9375C30.6487 33.4884 30.7237 32.979 30.7237 32.4087C30.7237 31.8456 30.6487 31.3411 30.4982 30.8957C30.3476 30.4504 30.1347 30.0743 29.8588 29.7678C29.5829 29.4614 29.2551 29.2261 28.8753 29.0622C28.4957 28.8983 28.0765 28.8165 27.6179 28.8165C27.1594 28.8165 26.7402 28.8983 26.3606 29.0622ZM26.8658 34.8036C26.6435 34.682 26.4536 34.5095 26.2961 34.2849C26.1383 34.0603 26.0167 33.7895 25.9305 33.4723C25.8447 33.155 25.8016 32.8005 25.8016 32.4087C25.8016 31.6245 25.9647 31.0098 26.2905 30.5644C26.6167 30.1189 27.059 29.8962 27.6179 29.8962C28.1769 29.8962 28.6192 30.1189 28.9452 30.5644C29.2711 31.0098 29.434 31.6245 29.434 32.4087C29.434 32.8005 29.3911 33.155 29.3052 33.4723C29.2192 33.7895 29.0975 34.0603 28.9398 34.2849C28.7823 34.5095 28.5924 34.682 28.3703 34.8036C28.148 34.9245 27.8973 34.9852 27.6179 34.9852C27.3385 34.9852 27.0878 34.9245 26.8658 34.8036ZM79.3657 28.9446V35.9365H80.6124V33.1996H81.6872L83.2025 35.9365H84.5996L82.9231 33.0178C83.3458 32.8753 83.6843 32.6403 83.9388 32.3124C84.1932 31.9846 84.3202 31.5534 84.3202 31.0187C84.3202 30.6269 84.254 30.2989 84.1212 30.0352C83.9889 29.7713 83.8078 29.5593 83.5788 29.3991C83.3493 29.2387 83.0771 29.1231 82.7619 29.0515C82.4466 28.9804 82.1062 28.9446 81.7408 28.9446H79.3657ZM80.6123 29.939H81.6119C82.0919 29.939 82.4592 30.0173 82.7136 30.1742C82.9678 30.3309 83.095 30.6125 83.095 31.0187C83.095 31.418 82.9678 31.7171 82.7136 31.9168C82.4592 32.1164 82.0919 32.2162 81.6119 32.2162H80.6123V29.939ZM71.6708 28.9446V35.9365H72.9174V33.1996H73.9923L75.5076 35.9365H76.9045L75.2282 33.0178C75.6509 32.8753 75.9894 32.6403 76.2437 32.3124C76.4979 31.9846 76.6253 31.5534 76.6253 31.0187C76.6253 30.6269 76.5591 30.2989 76.4263 30.0352C76.2938 29.7713 76.1129 29.5593 75.8837 29.3991C75.6544 29.2387 75.3822 29.1231 75.067 29.0515C74.7515 28.9804 74.4113 28.9446 74.0459 28.9446H71.6708ZM72.9174 29.939H73.9168C74.397 29.939 74.7643 30.0173 75.0185 30.1742C75.2729 30.3309 75.3999 30.6125 75.3999 31.0187C75.3999 31.418 75.2729 31.7171 75.0185 31.9168C74.7643 32.1164 74.397 32.2162 73.9168 32.2162H72.9174V29.939ZM64.5562 28.9446V35.9365H68.898V34.8889H65.8028V32.8256H68.3283V31.7777H65.8028V29.9924H68.7906V28.9446H64.5562ZM61.0955 28.9446L60.1176 32.4622C60.0099 32.8611 59.9116 33.2389 59.8221 33.5951C59.7324 33.9517 59.6268 34.3328 59.505 34.739H59.4621C59.34 34.3328 59.2345 33.9517 59.145 33.5951C59.0553 33.2389 58.9532 32.8611 58.8386 32.4622L57.8499 28.9446H56.5281L58.7204 35.9365H60.1928L62.3743 28.9446H61.0955ZM53.0996 35.9365H54.3462V28.9446H53.0996V35.9365ZM46.2859 28.9446V35.9365H47.5325V33.0178H50.0903V31.9702H47.5325V29.9924H50.5311V28.9446H46.2859ZM38.2683 28.9446L37.0539 32.3659C36.9751 32.5868 36.9017 32.8132 36.8337 33.0448C36.7656 33.2764 36.692 33.5063 36.6135 33.7341H36.5704C36.4914 33.5063 36.4164 33.2764 36.3446 33.0448C36.2731 32.8132 36.1978 32.5868 36.119 32.3659L34.8724 28.9446H33.4644V35.9365H34.5928V32.74C34.5928 32.5761 34.5875 32.3978 34.5767 32.2053C34.566 32.013 34.5518 31.8187 34.5337 31.6227C34.5159 31.4267 34.498 31.2344 34.48 31.0454C34.4621 30.8566 34.446 30.6801 34.4316 30.5164H34.4747L35.0335 32.1413L36.1941 35.2844H36.9357L38.0856 32.1413L38.6551 30.5164H38.6982C38.684 30.6801 38.6661 30.8566 38.6446 31.0454C38.6232 31.2344 38.605 31.4267 38.5908 31.6227C38.5766 31.8187 38.5638 32.013 38.5531 32.2053C38.5423 32.3978 38.537 32.5761 38.537 32.74V35.9365H39.6869V28.9446H38.2683ZM17.1933 28.9446V35.9365H18.4399V33.1996H19.5146L21.0298 35.9365H22.427L20.7505 33.0178C21.1731 32.8753 21.5117 32.6403 21.7661 32.3124C22.0206 31.9846 22.1476 31.5534 22.1476 31.0187C22.1476 30.6269 22.0814 30.2989 21.9488 30.0352C21.8162 29.7713 21.6352 29.5593 21.4061 29.3991C21.1766 29.2387 20.9045 29.1231 20.5892 29.0515C20.2742 28.9804 19.9338 28.9446 19.5684 28.9446H17.1933ZM18.4399 29.939H19.4393C19.9193 29.939 20.2865 30.0173 20.541 30.1742C20.7952 30.3309 20.9224 30.6125 20.9224 31.0187C20.9224 31.418 20.7952 31.7171 20.541 31.9168C20.2865 32.1164 19.9193 32.2162 19.4393 32.2162H18.4399V29.939ZM10.3794 28.9446V35.9365H11.6261V33.0178H14.184V31.9702H11.6261V29.9924H14.6244V28.9446H10.3794ZM19.9613 10.6835C21.2205 10.6835 22.1147 11.8405 22.1147 13.1952H17.211C17.5095 11.8732 18.3042 10.6835 19.9613 10.6835ZM28.0453 14.6163C28.0453 9.89088 25.1962 6.3873 20.0937 6.3873C14.5939 6.3873 11.2142 10.2874 11.2142 15.2774C11.2142 19.8048 14.4943 24.2001 20.591 24.2001C25.1962 24.2001 27.9461 21.8204 27.9461 21.8204L25.8585 17.8549C25.8585 17.8549 23.5729 19.4741 21.0547 19.4741C19.2324 19.4741 17.5095 18.5161 17.0786 16.3347H27.9129C27.9129 16.3347 28.0453 15.1781 28.0453 14.6163ZM39.6189 16.8305C39.6189 18.3176 38.1607 20.0694 36.7032 20.0694C35.7755 20.0694 35.1788 19.4413 35.1788 18.5488C35.1788 17.0286 37.1999 16.4338 39.0883 16.4338H39.6189V16.8305ZM61.0079 6.4866C58.4563 6.4866 56.3025 8.40353 55.5736 10.7168H55.5078C55.5078 10.7168 55.5736 10.3861 55.5736 9.85752V8.96518C55.5736 7.41185 54.7126 6.78377 53.1555 6.78377H47.7544V10.9152H49.3449C49.8088 10.9152 50.0734 11.1793 50.0734 11.642V19.6727H46.0131C45.5492 19.6727 45.2847 19.4082 45.2847 18.9455V13.3278C45.2847 8.86625 42.6341 6.38747 37.6636 6.38747C33.3569 6.38747 30.4406 8.60157 30.4406 8.60157L32.4293 12.4683C32.4293 12.4683 34.8145 10.8488 37.1341 10.8488C38.4261 10.8488 39.5523 11.3446 39.5523 12.7324V13.2282H38.5254C35.8751 13.2282 29.414 13.9557 29.414 18.9455C29.414 22.3825 32.0312 24.2 35.013 24.2C38.6578 24.2 40.0494 21.3912 40.0494 21.3912H40.116C40.116 21.3912 40.0494 21.6225 40.0494 21.9197V22.0191C40.0494 22.845 40.6789 23.8035 42.336 23.8035H58.2745V19.6727H55.8058V17.1939C55.8058 14.0875 57.3297 12.0718 60.5106 12.0718C61.2064 12.0718 61.6702 12.1705 61.6702 12.1705V6.55261C61.6702 6.55261 61.3388 6.4866 61.0079 6.4866ZM65.3824 19.6728H63.0327V23.8036H73.2926V19.6728H71.1138V16.5992C71.1138 14.2196 72.2406 11.5761 74.792 11.5761C76.0839 11.5761 76.7134 12.2372 76.7134 13.8231V23.8036H84.5987V19.6728H82.4454V12.7658C82.4454 7.97376 79.8939 6.38732 76.6807 6.38732C72.373 6.38732 70.8825 9.65953 70.8825 9.65953H70.8159C70.8159 9.65953 70.8491 9.42817 70.8491 9.26282V8.70097C70.8491 7.54435 70.054 6.78404 68.4967 6.78404H63.0385V10.9153H64.6529C65.1166 10.9153 65.3824 11.1793 65.3824 11.6419V19.6728Z" fill="#404145"></path><path fill-rule="evenodd" clip-rule="evenodd" d="M93.1966 21.4245C93.1966 22.8507 92.0376 24.0067 90.6079 24.0067C89.178 24.0067 88.019 22.8507 88.019 21.4245C88.019 19.9983 89.178 18.8423 90.6079 18.8423C92.0376 18.8423 93.1966 19.9983 93.1966 21.4245Z" fill="#1DBF73"></path></svg> 