<?xml version="1.0" encoding="UTF-8"?> <svg xmlns="http://www.w3.org/2000/svg" width="37" height="37" viewBox="0 0 37 37" fill="none"><path d="M27.0485 1.75146C21.8545 4.11343 15.3227 9.70341 8.63354 22.1431L14.7719 28.2842C27.2059 21.7494 32.7933 15.1359 35.1542 9.9396L27.0485 1.75146ZM24.7663 15.8445C22.7202 15.8445 21.1463 14.1911 21.1463 12.2228C21.1463 10.1758 22.7989 8.60116 24.7663 8.60116C26.7337 8.60116 28.3863 10.2545 28.3863 12.2228C28.3863 14.2699 26.7337 15.8445 24.7663 15.8445Z" fill="#A1F4C0"></path><path d="M6.98093 24.5837L4.22656 27.3394" stroke="#404145" stroke-width="2" stroke-miterlimit="10" stroke-linecap="round" stroke-linejoin="round"></path><path d="M9.7353 27.3395L3.3609 33.638" stroke="#404145" stroke-width="2" stroke-miterlimit="10" stroke-linecap="round" stroke-linejoin="round"></path><path d="M12.3323 30.0164L9.49921 32.8507" stroke="#404145" stroke-width="2" stroke-miterlimit="10" stroke-linecap="round" stroke-linejoin="round"></path><path d="M24.3728 9.15234C26.2615 9.15234 27.8354 10.727 27.8354 12.6166C27.8354 14.5061 26.2615 16.0808 24.3728 16.0808C22.4841 16.0808 20.9102 14.5061 20.9102 12.6166C20.9102 10.6483 22.4054 9.15234 24.3728 9.15234Z" stroke="#404145" stroke-width="2" stroke-miterlimit="10" stroke-linecap="round" stroke-linejoin="round"></path><path d="M26.8124 2.61768L34.2885 10.0972" stroke="#404145" stroke-width="2" stroke-miterlimit="10" stroke-linecap="round" stroke-linejoin="round"></path><path d="M35.7051 1.27915C33.8163 0.728021 21.3823 -1.16155 8.9483 22.1432L14.8505 28.0481C38.302 15.4509 36.2559 3.16872 35.7051 1.27915Z" stroke="#404145" stroke-width="2" stroke-miterlimit="10" stroke-linecap="round" stroke-linejoin="round"></path><path d="M12.0175 11.5143C9.26312 11.9079 4.85612 13.2464 1 19.1513C1 19.1513 3.28219 18.1278 7.29571 18.9151" stroke="#404145" stroke-width="2" stroke-miterlimit="10" stroke-linecap="round" stroke-linejoin="round"></path><path d="M25.4745 24.9775C25.0811 27.7332 23.7432 32.1422 17.841 36C17.841 36 18.8641 33.7168 18.0771 29.7015" stroke="#404145" stroke-width="2" stroke-miterlimit="10" stroke-linecap="round" stroke-linejoin="round"></path></svg> 