<?xml version="1.0" encoding="UTF-8"?> <svg xmlns="http://www.w3.org/2000/svg" width="36" height="35" viewBox="0 0 36 35" fill="none"><g clip-path="url(#clip0)"><path d="M21 17.4239L8.625 8.97823L14.175 5.55432L17.475 7.68476L27 13.6956V25.8695L21 29.8261V17.4239Z" fill="#A1F4C0"></path><path d="M21 25.1087L12.75 30.4348L0.75 22.0652" stroke="#404145" stroke-width="1.6" stroke-miterlimit="10" stroke-linecap="round" stroke-linejoin="round"></path><path d="M23.25 7.6087V9.13044" stroke="#404145" stroke-width="1.6" stroke-miterlimit="10" stroke-linecap="round" stroke-linejoin="round"></path><path d="M12.75 14.4565V15.9783" stroke="#404145" stroke-width="1.6" stroke-miterlimit="10" stroke-linecap="round" stroke-linejoin="round"></path><path d="M21 17.4239L8.625 8.97823L14.175 5.55432L17.475 7.68476L27 13.6956V25.8695L21 29.8261V17.4239Z" stroke="#404145" stroke-width="1.6" stroke-miterlimit="10" stroke-linecap="round" stroke-linejoin="round"></path><path d="M24.525 12.1739L28.8 9.43479C28.125 9.05435 28.05 8.44565 28.8 7.91305L24.075 4.86957C23.325 5.40218 22.35 5.25 21.75 4.86957L17.4 7.6087" stroke="#404145" stroke-width="1.6" stroke-miterlimit="10" stroke-linecap="round" stroke-linejoin="round"></path><path d="M11.85 11.1848L7.125 14.2282C7.875 14.7608 7.8 15.2935 7.125 15.75L11.85 18.7935C12.525 18.413 13.425 18.2608 14.175 18.7935L18.6 15.9782" stroke="#404145" stroke-width="1.6" stroke-miterlimit="10" stroke-linecap="round" stroke-linejoin="round"></path><path d="M21 17.5L12.75 22.8261L0.75 15.2174L9.6 9.66302" stroke="#404145" stroke-width="1.6" stroke-miterlimit="10" stroke-linecap="round" stroke-linejoin="round"></path><path d="M15.075 6.08695L23.25 0.760864L35.25 8.36956L26.925 13.6956" stroke="#404145" stroke-width="1.6" stroke-miterlimit="10" stroke-linecap="round" stroke-linejoin="round"></path><path d="M21 21.3804L12.75 26.6304L0.75 18.2609" stroke="#404145" stroke-width="1.6" stroke-miterlimit="10" stroke-linecap="round" stroke-linejoin="round"></path><path d="M35.25 12.1739L27 17.5" stroke="#404145" stroke-width="1.6" stroke-miterlimit="10" stroke-linecap="round" stroke-linejoin="round"></path><path d="M21 28.913L12.75 34.2391L0.75 25.8696" stroke="#404145" stroke-width="1.6" stroke-miterlimit="10" stroke-linecap="round" stroke-linejoin="round"></path><path d="M35.25 19.7826L27 25.1087" stroke="#404145" stroke-width="1.6" stroke-miterlimit="10" stroke-linecap="round" stroke-linejoin="round"></path><path d="M35.25 15.9783L27 21.3044" stroke="#404145" stroke-width="1.6" stroke-miterlimit="10" stroke-linecap="round" stroke-linejoin="round"></path></g><defs><clipPath id="clip0"><rect width="36" height="35" fill="white"></rect></clipPath></defs></svg> 